<svg width="28" height="28" viewBox="0 0 28 28" fill="none" xmlns="http://www.w3.org/2000/svg">
<path d="M14 28C21.732 28 28 21.732 28 14C28 6.26801 21.732 0 14 0C6.26801 0 0 6.26801 0 14C0 21.732 6.26801 28 14 28Z" fill="#4FA274"/>
<path fill-rule="evenodd" clip-rule="evenodd" d="M14.3254 22.7594C10.4079 22.7594 7.22559 19.5771 7.22559 15.6701C7.22559 11.7526 10.4079 8.57031 14.3254 8.57031C18.2323 8.57031 21.4146 11.7526 21.4146 15.6701C21.4146 19.5771 18.2323 22.7594 14.3254 22.7594Z" fill="#4D7F9C"/>
<path fill-rule="evenodd" clip-rule="evenodd" d="M18.1789 19.5031H10.4595C9.8608 19.5031 9.38818 19.0305 9.38818 18.4318V15.029C9.38818 14.4303 9.8608 13.9577 10.4595 13.9577H18.1789C18.7775 13.9577 19.2501 14.4303 19.2501 15.029V18.4318C19.2501 19.0305 18.7775 19.5031 18.1789 19.5031Z" fill="white"/>
<path fill-rule="evenodd" clip-rule="evenodd" d="M7.71892 8.14923C7.28844 8.14923 6.88946 7.92874 6.64797 7.57175C6.45898 7.28826 6.38549 6.95228 6.45898 6.6163C6.52198 6.28031 6.71097 5.98632 7.00496 5.79733C7.21495 5.65034 7.45644 5.57684 7.70843 5.57684C8.13891 5.57684 8.53789 5.78683 8.77938 6.14382C8.96837 6.4378 9.04186 6.77379 8.96837 7.10977C8.90537 7.44576 8.71638 7.73974 8.43289 7.92874C8.2124 8.06523 7.97091 8.14923 7.71892 8.14923Z" fill="#C80B4F"/>
<path fill-rule="evenodd" clip-rule="evenodd" d="M20.2912 7.74999C20.0707 7.74999 19.8397 7.687 19.6507 7.5715C19.0312 7.21452 18.8317 6.42706 19.1782 5.81808C19.4092 5.4296 19.8397 5.17761 20.2912 5.17761C20.5221 5.17761 20.7426 5.24061 20.9421 5.3561C21.2361 5.5241 21.4461 5.80758 21.5301 6.13307C21.6246 6.46905 21.5721 6.81554 21.4041 7.10952C21.1731 7.50851 20.7426 7.74999 20.2912 7.74999Z" fill="#C80B4F"/>
<path fill-rule="evenodd" clip-rule="evenodd" d="M14.3266 22.9691C10.2936 22.9691 7.02731 19.6922 7.02731 15.6697C7.02731 13.4117 8.04606 11.4057 9.65297 10.0613C9.64246 10.0508 9.63196 10.0403 9.62146 10.0193L8.36114 8.13935C8.16159 8.23388 7.94104 8.28639 7.72048 8.28639C7.23736 8.28639 6.79625 8.05533 6.53369 7.65623C6.32363 7.34115 6.25012 6.96306 6.32363 6.58496C6.39715 6.21737 6.60721 5.89179 6.92228 5.68174C7.16384 5.5242 7.43691 5.44018 7.70998 5.44018C8.1931 5.44018 8.63421 5.67123 8.89678 6.07033C9.10683 6.38541 9.19085 6.76351 9.11733 7.1416C9.05432 7.45668 8.88627 7.72975 8.64471 7.9398L9.91553 9.83027C9.91553 9.83027 9.91553 9.84078 9.92603 9.85128C11.1443 8.91655 12.6672 8.37041 14.3266 8.37041C15.7865 8.37041 17.1518 8.80102 18.2966 9.5467L19.4309 7.60372C18.8638 7.17311 18.6957 6.37491 19.0633 5.74475C19.3154 5.31414 19.788 5.04108 20.2921 5.04108C20.5442 5.04108 20.7963 5.10409 21.0063 5.23012C21.3424 5.42967 21.5734 5.73425 21.668 6.10184C21.7625 6.46943 21.71 6.85803 21.5209 7.18361C21.2689 7.61422 20.7963 7.88729 20.2921 7.88729C20.1031 7.88729 19.914 7.84528 19.7355 7.77176L18.5907 9.74625C20.4182 11.0696 21.6155 13.2331 21.6155 15.6697C21.6155 19.6922 18.3491 22.9691 14.3266 22.9691ZM19.7565 7.39366C19.914 7.48819 20.1031 7.5407 20.2921 7.5407C20.6702 7.5407 21.0273 7.33065 21.2164 7.00507C21.3634 6.753 21.4054 6.46943 21.3319 6.18586C21.2584 5.91279 21.0798 5.68174 20.8278 5.5347C20.6702 5.44018 20.4812 5.38766 20.2921 5.38766C19.914 5.38766 19.5569 5.59772 19.3679 5.9233C19.0633 6.43793 19.2419 7.09959 19.7565 7.39366ZM17.929 11.5527C17.887 11.5527 17.845 11.5422 17.8135 11.5212C16.8053 10.744 15.5975 10.3239 14.3266 10.3239C13.0453 10.3239 11.8375 10.744 10.8293 11.5212C10.7452 11.5842 10.6402 11.5632 10.5772 11.4897C10.5247 11.4162 10.5352 11.3006 10.6087 11.2481C11.68 10.4184 12.9613 9.97731 14.3266 9.97731C15.6815 9.97731 16.9628 10.4184 18.0341 11.2481C18.1076 11.3006 18.1181 11.4162 18.0656 11.4897C18.0236 11.5317 17.9815 11.5527 17.929 11.5527ZM17.4354 12.0463C17.4039 12.0463 17.3724 12.0358 17.3514 12.0148C16.4377 11.4477 15.3979 11.1536 14.3266 11.1536C13.2449 11.1536 12.2051 11.4477 11.3019 12.0148C11.2179 12.0673 11.1128 12.0463 11.0603 11.9623C11.0078 11.8783 11.0288 11.7733 11.1128 11.7207C12.0686 11.1221 13.1818 10.807 14.3266 10.807C15.4609 10.807 16.5742 11.1221 17.5299 11.7207C17.614 11.7733 17.635 11.8783 17.5824 11.9623C17.5509 12.0148 17.4984 12.0463 17.4354 12.0463ZM16.8578 12.624C16.8263 12.624 16.8053 12.624 16.7842 12.6135C16.0071 12.2459 15.1773 12.0568 14.3266 12.0568C13.4654 12.0568 12.6357 12.2459 11.8585 12.6135C11.7745 12.645 11.6695 12.6135 11.6275 12.5294C11.5854 12.4349 11.6275 12.3299 11.7115 12.2879C12.5307 11.8993 13.4129 11.6997 14.3266 11.6997C15.2299 11.6997 16.1121 11.8993 16.9313 12.2879C17.0153 12.3299 17.0573 12.4349 17.0153 12.5294C16.9838 12.5925 16.9208 12.624 16.8578 12.624ZM8.30863 7.75075C8.55019 7.59321 8.71823 7.35165 8.77075 7.06808C8.82326 6.78451 8.77075 6.50094 8.61321 6.26988C8.41366 5.96531 8.07757 5.78676 7.70998 5.78676C7.49993 5.78676 7.30038 5.84978 7.12183 5.96531C6.88027 6.13335 6.72273 6.37491 6.65972 6.65848C6.60721 6.93155 6.65972 7.22562 6.82776 7.45668C7.02731 7.76126 7.35289 7.9398 7.72048 7.9398C7.93054 7.9398 8.14059 7.87679 8.30863 7.75075ZM18.2966 19.5872H10.3461C9.73699 19.5872 9.24336 19.0936 9.24336 18.4844V14.9766C9.24336 14.3674 9.73699 13.8738 10.3461 13.8738H18.2966C18.9058 13.8738 19.3994 14.3674 19.3994 14.9766V18.4844C19.3994 19.0936 18.9058 19.5872 18.2966 19.5872ZM10.3461 14.2204C9.93654 14.2204 9.58995 14.5565 9.58995 14.9766V18.4844C9.58995 18.9045 9.93654 19.2406 10.3461 19.2406H18.2966C18.7167 19.2406 19.0528 18.9045 19.0528 18.4844V14.9766C19.0528 14.5565 18.7167 14.2204 18.2966 14.2204H10.3461ZM13.0768 15.7538C13.0348 15.7538 12.9928 15.7327 12.9613 15.7117C12.3626 15.2286 11.1653 15.7327 11.1548 15.7327C11.0603 15.7748 10.9658 15.7327 10.9238 15.6382C10.8818 15.5542 10.9238 15.4492 11.0183 15.4177C11.0708 15.3862 12.4152 14.819 13.1818 15.4387C13.2554 15.5017 13.2659 15.6067 13.2134 15.6802C13.1713 15.7222 13.1293 15.7538 13.0768 15.7538ZM17.95 15.7538C17.929 15.7538 17.908 15.7433 17.887 15.7327C17.8765 15.7327 16.6792 15.2286 16.0701 15.7117C15.9966 15.7748 15.8915 15.7643 15.8285 15.6802C15.7655 15.6067 15.776 15.5017 15.8495 15.4387C16.6267 14.819 17.9605 15.3862 18.0236 15.4177C18.1076 15.4492 18.1496 15.5542 18.1181 15.6382C18.0866 15.7117 18.0236 15.7538 17.95 15.7538ZM14.1901 18.0328C13.4654 18.0328 13.0243 17.7493 12.8353 17.6232C12.8143 17.6127 12.7827 17.5917 12.7827 17.5917C12.6882 17.5497 12.6462 17.4552 12.6777 17.3712C12.7092 17.2766 12.8038 17.2241 12.8983 17.2556C12.9403 17.2766 12.9718 17.2976 13.0243 17.3291C13.2974 17.5077 14.1481 18.0433 15.7235 17.2661C15.8075 17.2241 15.9125 17.2556 15.9545 17.3502C16.0071 17.4342 15.965 17.5392 15.881 17.5812C15.1984 17.9173 14.6417 18.0328 14.1901 18.0328ZM14.3266 8.717C10.4932 8.717 7.3739 11.8363 7.3739 15.6697C7.3739 19.5032 10.4932 22.612 14.3266 22.612C18.1496 22.612 21.2689 19.5032 21.2689 15.6697C21.2689 11.8363 18.1496 8.717 14.3266 8.717Z" fill="black"/>
</svg>
