<svg width="12" height="12" viewBox="0 0 12 12" fill="none" xmlns="http://www.w3.org/2000/svg">
<path d="M3.94853 6.6L6.42426 9.07574C6.65858 9.31005 6.65858 9.68995 6.42426 9.92426C6.42426 9.92426 6.42426 9.92426 6.42426 9.92426L6.35355 9.85355L3.94853 6.6ZM3.94853 6.6L10.5 6.6C10.8313 6.6 11.1 6.33137 11.1 6C11.1 5.66863 10.8313 5.4 10.5 5.4L3.94853 5.4L6.42426 2.92431L6.42427 2.92431C6.65858 2.68995 6.65858 2.31005 6.42427 2.0757L6.42425 2.07568C6.18994 1.84144 5.81006 1.84144 5.57575 2.07568L5.57574 2.07569L2.1 5.55148L2.1 1.5C2.1 1.16868 1.83137 0.9 1.5 0.900001C1.16863 0.900001 0.899999 1.16868 0.899999 1.5L0.9 10.5C0.9 10.8314 1.16863 11.1 1.5 11.1C1.83137 11.1 2.1 10.8314 2.1 10.5L2.1 6.44852L3.94853 6.6Z" fill="white" stroke="white" stroke-width="0.2"/>
</svg>
