<svg width="12" height="16" viewBox="0 0 12 16" fill="none" xmlns="http://www.w3.org/2000/svg">
<path d="M8.40029 4.00052H11.1106C11.1343 4.00052 11.1575 3.99382 11.1773 3.98126C11.197 3.9687 11.2124 3.95085 11.2215 3.92997C11.2305 3.90908 11.2329 3.8861 11.2283 3.86393C11.2236 3.84176 11.2122 3.8214 11.1954 3.80541L8.00515 0.767014C7.98837 0.75103 7.96699 0.740143 7.94371 0.735733C7.92043 0.731322 7.8963 0.733585 7.87437 0.742235C7.85244 0.750885 7.8337 0.765534 7.82052 0.784329C7.80733 0.803124 7.80029 0.825221 7.80029 0.847826V3.42909C7.80029 3.58064 7.86351 3.72599 7.97603 3.83315C8.08855 3.94031 8.24116 4.00052 8.40029 4.00052Z" fill="#007AFF"/>
<path d="M11.4 5.14292H8.4C7.92261 5.14292 7.46477 4.96231 7.12721 4.64082C6.78964 4.31932 6.6 3.88329 6.6 3.42863V0.572952C6.60024 0.498036 6.58496 0.423811 6.55503 0.354526C6.52511 0.285241 6.48114 0.222257 6.42562 0.169179C6.37011 0.116101 6.30415 0.0739722 6.23152 0.0452036C6.15889 0.0164351 6.08101 0.00159188 6.00235 0.00152384C4.59694 0.000826692 1.2 6.10352e-05 1.2 6.10352e-05C0.88174 6.10352e-05 0.576515 0.120469 0.351472 0.334796C0.126428 0.549123 0 0.839814 0 1.14292V14.8572C0 15.1603 0.126428 15.451 0.351472 15.6653C0.576515 15.8797 0.88174 16.0001 1.2 16.0001H10.8C11.1183 16.0001 11.4235 15.8797 11.6485 15.6653C11.8736 15.451 12 15.1603 12 14.8572V5.71435C12 5.56279 11.9368 5.41745 11.8243 5.31029C11.7117 5.20312 11.5591 5.14292 11.4 5.14292Z" fill="#007AFF"/>
</svg>
