<svg width="12" height="16" viewBox="0 0 12 16" fill="none" xmlns="http://www.w3.org/2000/svg">
<path d="M11.4 5.14286H8.4C7.92261 5.14286 7.46477 4.96225 7.12721 4.64075C6.78964 4.31926 6.6 3.88323 6.6 3.42857V0.572891C6.60024 0.497975 6.58496 0.42375 6.55503 0.354465C6.52511 0.28518 6.48114 0.222196 6.42562 0.169118C6.37011 0.11604 6.30415 0.0739111 6.23152 0.0451426C6.15889 0.016374 6.08101 0.00153084 6.00235 0.0014628C4.59694 0.000765657 1.2 0 1.2 0C0.88174 0 0.576515 0.120408 0.351472 0.334735C0.126428 0.549062 0 0.839753 0 1.14286V14.8571C0 15.1602 0.126428 15.4509 0.351472 15.6653C0.576515 15.8796 0.88174 16 1.2 16H10.8C11.1183 16 11.4235 15.8796 11.6485 15.6653C11.8736 15.4509 12 15.1602 12 14.8571V5.71429C12 5.56273 11.9368 5.41739 11.8243 5.31023C11.7117 5.20306 11.5591 5.14286 11.4 5.14286Z" fill="#AAAAAA"/>
<path d="M8.40029 4.00046H11.1106C11.1343 4.00046 11.1575 3.99375 11.1773 3.9812C11.197 3.96864 11.2124 3.95079 11.2215 3.9299C11.2305 3.90902 11.2329 3.88604 11.2283 3.86387C11.2236 3.8417 11.2122 3.82134 11.1954 3.80535L8.00515 0.766953C7.98837 0.750969 7.96699 0.740082 7.94371 0.735672C7.92043 0.731261 7.8963 0.733524 7.87437 0.742174C7.85244 0.750824 7.8337 0.765473 7.82052 0.784268C7.80733 0.803063 7.80029 0.82516 7.80029 0.847765V3.42903C7.80029 3.58058 7.86351 3.72592 7.97603 3.83309C8.08855 3.94025 8.24116 4.00046 8.40029 4.00046Z" fill="#AAAAAA"/>
</svg>
