<svg width="12" height="16" viewBox="0 0 12 16" fill="none" xmlns="http://www.w3.org/2000/svg">
<path d="M11.7994 0.740211C8.39543 -1.79494 4.99208 3.13546 1.58818 1.42075V1.05599C1.58818 0.602982 1.23247 0.235454 0.79406 0.235454C0.355647 0.235454 0 0.602982 0 1.05599V15.1795C0 15.6325 0.355647 16 0.79406 16C1.23247 16 1.58818 15.6325 1.58818 15.1795V9.1962C4.82352 10.8254 8.05892 6.45214 11.2948 8.19251C11.4442 8.27318 11.6236 8.26784 11.7678 8.17698C11.9121 8.08674 12 7.92541 12 7.7507C12 5.54892 12 3.34701 12 1.1446C12 0.984937 11.9249 0.833673 11.7994 0.740211Z" fill="#FF4D4D"/>
</svg>
