<svg width="16" height="14" viewBox="0 0 16 14" fill="none" xmlns="http://www.w3.org/2000/svg">
<path fill-rule="evenodd" clip-rule="evenodd" d="M15.6419 4.1844C15.873 4.49066 16 4.86791 16 5.25865V12.2399C16 13.2121 15.2281 14 14.2756 14H1.72439C0.77195 14 0 13.2121 0 12.2399C0 9.79918 0 4.20082 0 1.76012C0 1.29369 0.181634 0.84603 0.505244 0.515714C0.828279 0.185985 1.26685 0 1.72439 0H5.45366C5.4824 0 5.51055 0.00117212 5.53872 0.00234554C5.56516 0.0457618 5.58702 0.0927016 5.60253 0.143158L6.46415 2.92884C6.69579 3.67748 7.35737 4.1844 8.10346 4.1844H15.6419ZM7.12804 0.754517L7.55683 2.55159C7.63386 2.80153 7.85457 2.9705 8.10346 2.9705H14.2865V2.9265C14.2865 1.95432 13.5146 0.754517 12.5622 0.754517H7.12804Z" fill="#AAAAAA"/>
</svg>
