<svg width="16" height="14" viewBox="0 0 16 14" fill="none" xmlns="http://www.w3.org/2000/svg">
<path d="M5.98648 3.07659L5.98649 3.07664C6.2784 4.02004 7.1232 4.6844 8.10346 4.6844H15.3657C15.453 4.86008 15.5 5.05653 15.5 5.25865V12.2399C15.5 12.9456 14.9423 13.5 14.2756 13.5H1.72439C1.05771 13.5 0.5 12.9456 0.5 12.2399V12.2255V12.2111V12.1967V12.1821V12.1675V12.1528V12.138V12.1232V12.1083V12.0933V12.0783V12.0631V12.048V12.0327V12.0174V12.002V11.9866V11.971V11.9554V11.9398V11.9241V11.9083V11.8924V11.8765V11.8605V11.8445V11.8283V11.8122V11.7959V11.7796V11.7632V11.7468V11.7303V11.7137V11.6971V11.6804V11.6637V11.6468V11.63V11.613V11.596V11.579V11.5619V11.5447V11.5274V11.5101V11.4928V11.4754V11.4579V11.4404V11.4228V11.4051V11.3874V11.3697V11.3518V11.334V11.316V11.298V11.28V11.2619V11.2437V11.2255V11.2073V11.1889V11.1706V11.1521V11.1336V11.1151V11.0965V11.0779V11.0592V11.0404V11.0216V11.0028V10.9839V10.9649V10.9459V10.9269V10.9078V10.8886V10.8694V10.8502V10.8309V10.8115V10.7921V10.7727V10.7532V10.7336V10.714V10.6944V10.6747V10.655V10.6352V10.6154V10.5955V10.5756V10.5556V10.5356V10.5156V10.4955V10.4753V10.4551V10.4349V10.4147V10.3943V10.374V10.3536V10.3331V10.3127V10.2921V10.2716V10.251V10.2303V10.2096V10.1889V10.1682V10.1474V10.1265V10.1056V10.0847V10.0637V10.0427V10.0217V10.0006V9.97952V9.95838V9.93719V9.91597V9.89471V9.87342V9.85209V9.83073V9.80933V9.7879V9.76643V9.74492V9.72339V9.70182V9.68022V9.65858V9.63691V9.61521V9.59348V9.57171V9.54991V9.52808V9.50623V9.48434V9.46241V9.44046V9.41848V9.39647V9.37443V9.35236V9.33027V9.30814V9.28599V9.2638V9.24159V9.21936V9.19709V9.1748V9.15248V9.13014V9.10777V9.08537V9.06295V9.0405V9.01803V8.99554V8.97302V8.95047V8.92791V8.90532V8.8827V8.86006V8.8374V8.81472V8.79202V8.76929V8.74654V8.72378V8.70099V8.67818V8.65535V8.6325V8.60963V8.58674V8.56383V8.5409V8.51795V8.49499V8.47201V8.44901V8.42599V8.40295V8.3799V8.35683V8.33375V8.31065V8.28753V8.2644V8.24125V8.21808V8.19491V8.17171V8.14851V8.12529V8.10206V8.07881V8.05555V8.03228V8.00899V7.9857V7.96239V7.93907V7.91573V7.89239V7.86904V7.84567V7.8223V7.79892V7.77552V7.75212V7.72871V7.70529V7.68186V7.65842V7.63498V7.61152V7.58806V7.5646V7.54112V7.51764V7.49415V7.47066V7.44716V7.42366V7.40015V7.37664V7.35312V7.3296V7.30607V7.28254V7.25901V7.23547V7.21193V7.18839V7.16485V7.1413V7.11775V7.0942V7.07065V7.0471V7.02355V7V6.97645V6.9529V6.92935V6.9058V6.88225V6.8587V6.83515V6.81161V6.78807V6.76453V6.74099V6.71746V6.69393V6.6704V6.64688V6.62336V6.59985V6.57634V6.55284V6.52934V6.50585V6.48236V6.45888V6.4354V6.41194V6.38848V6.36502V6.34158V6.31814V6.29471V6.27129V6.24788V6.22448V6.20108V6.1777V6.15433V6.13096V6.10761V6.08427V6.06093V6.03761V6.01431V5.99101V5.96772V5.94445V5.92119V5.89794V5.87471V5.85149V5.82829V5.80509V5.78192V5.75875V5.73561V5.71247V5.68936V5.66625V5.64317V5.6201V5.59705V5.57401V5.55099V5.52799V5.50501V5.48205V5.4591V5.43617V5.41326V5.39037V5.3675V5.34465V5.32182V5.29901V5.27622V5.25346V5.23071V5.20798V5.18528V5.1626V5.13994V5.1173V5.09469V5.07209V5.04953V5.02698V5.00446V4.98197V4.9595V4.93705V4.91463V4.89223V4.86986V4.84752V4.8252V4.80291V4.78064V4.75841V4.7362V4.71401V4.69186V4.66973V4.64764V4.62557V4.60353V4.58152V4.55954V4.53759V4.51567V4.49377V4.47192V4.45009V4.42829V4.40652V4.38479V4.36309V4.34142V4.31979V4.29818V4.27661V4.25508V4.23357V4.21211V4.19067V4.16927V4.14791V4.12658V4.10529V4.08403V4.06281V4.04162V4.02048V3.99937V3.97829V3.95726V3.93626V3.9153V3.89438V3.87349V3.85265V3.83184V3.81108V3.79035V3.76967V3.74902V3.72842V3.70785V3.68733V3.66685V3.64641V3.62601V3.60566V3.58535V3.56508V3.54485V3.52467V3.50453V3.48444V3.46439V3.44438V3.42442V3.4045V3.38463V3.36481V3.34503V3.3253V3.30561V3.28597V3.26638V3.24684V3.22734V3.20789V3.18849V3.16914V3.14984V3.13059V3.11138V3.09223V3.07312V3.05407V3.03506V3.01611V2.99721V2.97836V2.95956V2.94081V2.92212V2.90348V2.88489V2.86635V2.84787V2.82944V2.81106V2.79274V2.77448V2.75626V2.73811V2.72001V2.70196V2.68397V2.66604V2.64816V2.63034V2.61258V2.59487V2.57722V2.55963V2.5421V2.52462V2.50721V2.48985V2.47255V2.45532V2.43814V2.42102V2.40396V2.38697V2.37003V2.35316V2.33634V2.31959V2.30291V2.28628V2.26971V2.25321V2.23678V2.2204V2.20409V2.18785V2.17166V2.15555V2.1395V2.12351V2.10759V2.09173V2.07594V2.06022V2.04456V2.02897V2.01345V1.99799V1.98261V1.96729V1.95204V1.93685V1.92174V1.9067V1.89172V1.87682V1.86198V1.84722V1.83252V1.8179V1.80335V1.78887V1.77446V1.76012C0.5 1.42311 0.631336 1.10148 0.862404 0.865623C1.09271 0.630543 1.40311 0.5 1.72439 0.5H5.18954L5.98648 3.07659Z" stroke="#007AFF" stroke-opacity="0.9"/>
<path d="M7.12793 1.16638H12.562C13.5145 1.16638 14.2864 1.95433 14.2864 2.9265V2.9705" stroke="#007AFF" stroke-opacity="0.9"/>
</svg>
