<svg width="12" height="12" viewBox="0 0 12 12" fill="none" xmlns="http://www.w3.org/2000/svg">
<path d="M6 0C2.68594 0 0 2.68594 0 6C0 9.31406 2.68594 12 6 12C9.31406 12 12 9.31406 12 6C12 2.68594 9.31406 0 6 0ZM6.84375 8.99531C6.84375 9.46172 6.46641 9.83906 6 9.83906C5.53359 9.83906 5.15625 9.46172 5.15625 8.99531V5.46797C5.15625 5.00156 5.53359 4.62422 6 4.62422C6.46641 4.62422 6.84375 5.00156 6.84375 5.46797V8.99531ZM6 3.84844C5.53359 3.84844 5.15625 3.47109 5.15625 3.00469C5.15625 2.53828 5.53359 2.16094 6 2.16094C6.46641 2.16094 6.84375 2.53828 6.84375 3.00469C6.84375 3.47109 6.46641 3.84844 6 3.84844Z" fill="#EEEEEE"/>
</svg>
