<svg width="128" height="28" viewBox="0 0 128 28" fill="none" xmlns="http://www.w3.org/2000/svg">
<path fill-rule="evenodd" clip-rule="evenodd" d="M12.2903 27.9626L12.2918 27.9994C12.2809 27.9922 12.2692 27.986 12.257 27.9809C12.245 27.9865 12.2334 27.9928 12.2224 28L12.2209 27.9632C7.67695 25.6563 4.79135 22.7769 2.97882 19.8267C2.43802 18.9491 1.9721 18.0344 1.58522 17.0907C-0.374174 12.3406 -0.0346895 7.79491 0.13479 5.52557L0.134791 5.52556C0.143297 5.41166 0.151375 5.30349 0.158713 5.20132C5.49881 4.39237 10.5185 0.97977 11.7408 0.101908C11.7981 0.063896 11.8454 0.0290659 11.8827 0C11.9202 0.0266651 11.967 0.0574517 12.0207 0.0927426L12.0288 0.098046C13.1364 0.848814 14.2942 1.53524 15.4953 2.15333C16.5531 2.70482 17.6462 3.19704 18.7688 3.62732C20.3588 4.2559 22.0297 4.69589 23.741 4.9367C23.751 5.03772 23.7619 5.14462 23.7733 5.25715C24.1912 9.35701 25.3708 20.9292 12.2903 27.9626ZM19.0454 8.58566C15.8429 8.17441 12.7899 6.20533 12.0459 5.69484L11.9588 5.63585L11.9417 5.64852C11.9226 5.66273 11.9005 5.67913 11.8743 5.69647C11.1437 6.22202 8.1446 8.26057 4.95414 8.74371C4.94976 8.80455 4.94494 8.86896 4.93987 8.93678C4.75618 11.3918 4.23784 18.3196 12.1605 22.3431L12.1607 22.3658C12.1673 22.3616 12.1744 22.358 12.1818 22.3553C12.1893 22.3579 12.1964 22.3612 12.203 22.3653V22.3419C20.0113 18.1447 19.3132 11.2373 19.0651 8.78262C19.0581 8.71337 19.0514 8.64767 19.0454 8.58566ZM11.9975 1.90051L11.9098 1.83918L11.8232 1.90216L11.8143 1.90865L11.8142 1.90873C11.7827 1.93169 11.7459 1.95848 11.7041 1.98805L11.7033 1.98861C10.6573 2.73912 6.38917 5.63928 1.85928 6.32479L1.74075 6.34273L1.73212 6.46229C1.72586 6.54888 1.71898 6.64059 1.71172 6.73722L1.71172 6.73729C1.58327 8.44807 1.33931 11.6973 2.43838 15.2496C3.59617 18.9917 6.24117 23.0616 12.0509 26.0376L12.0534 26.2486L12.2308 26.1357L12.4137 26.2523L12.4117 26.0336C18.1404 22.928 20.6761 18.7993 21.7337 15.0319C22.7376 11.4562 22.4072 8.21357 22.2333 6.5066C22.2234 6.40998 22.2141 6.31828 22.2055 6.23172L22.1937 6.11292L22.0753 6.09772C17.5283 5.51384 13.1827 2.71081 12.1188 1.98391L12.1189 1.98386L12.1152 1.98151C12.0815 1.95985 12.052 1.93904 12.0239 1.91913L12.0239 1.91912L11.9975 1.90051ZM21.4449 14.9509C20.4057 18.6525 17.9111 22.7239 12.2286 25.7915C6.4655 22.8522 3.8627 18.8381 2.72497 15.1609C1.64318 11.6644 1.88306 8.46483 2.01115 6.75636L2.0226 6.60299C6.58327 5.87426 10.836 2.98005 11.8778 2.23266L11.9131 2.20751C11.9254 2.21583 11.9382 2.22434 11.9514 2.23281C13.0135 2.95833 17.3419 5.75365 21.9188 6.37959L21.9344 6.53361C22.108 8.23834 22.4329 11.4314 21.4449 14.9509Z" fill="white"/>
<path fill-rule="evenodd" clip-rule="evenodd" d="M8.271 17.1978C8.37417 16.9037 8.49794 16.6161 8.64154 16.3367C9.22895 15.2805 9.96375 14.2989 10.8274 13.4168C11.9282 12.2718 13.1939 11.2698 14.5895 10.4382C15.1922 10.063 15.8472 9.76389 16.5367 9.54888C16.5704 9.51816 16.6375 9.51827 16.7047 9.48755L16.301 9.94713C15.8387 10.4326 15.4123 10.9459 15.0247 11.4836C14.991 11.5452 14.9574 11.5451 14.8902 11.545C14.6059 11.6178 14.313 11.6587 14.018 11.6667C14.1293 11.7769 14.2669 11.862 14.4199 11.9152C14.487 11.9461 14.6213 11.9464 14.6543 12.0388C14.6542 12.1004 14.5533 12.1927 14.5196 12.2538C14.4893 12.3253 14.4393 12.3882 14.3745 12.4366C14.3098 12.4851 14.2325 12.5173 14.1502 12.5301C13.8773 12.603 13.5955 12.6439 13.3115 12.6519C13.3113 12.7135 13.3449 12.7136 13.3784 12.7444C13.549 12.867 13.7415 12.9614 13.9474 13.0233C14.0145 13.0542 14.0144 13.085 13.9808 13.1465C13.9493 13.2145 13.8983 13.2734 13.8333 13.317C13.7682 13.3605 13.6915 13.387 13.6114 13.3937C13.1864 13.5197 12.7476 13.6021 12.3028 13.6394L12.2693 13.6393C12.3613 13.7206 12.4623 13.7929 12.5706 13.8551C12.775 13.9456 12.9883 14.018 13.2076 14.0714C13.2412 14.0714 13.2747 14.1023 13.2411 14.133C13.0871 14.3554 12.894 14.5527 12.6696 14.7169C12.5865 14.7803 12.4896 14.8267 12.3855 14.8531C12.2813 14.8794 12.1722 14.8852 12.0654 14.87L11.2937 14.8687C11.0919 14.8633 10.8899 14.8732 10.6898 14.8985C10.5303 14.9194 10.3858 14.9964 10.2869 15.1131C9.97834 15.4719 9.71843 15.8637 9.51292 16.2801L9.41187 16.4647C9.38221 16.5715 9.32348 16.6697 9.24119 16.7501C9.1589 16.8304 9.05576 16.8904 8.94139 16.9242C8.70348 16.9821 8.4772 17.0744 8.271 17.1978Z" fill="white"/>
<path d="M33.8888 14.7089C33.8888 13.6422 34.1267 12.6903 34.6026 11.8532C35.092 11.016 35.7569 10.3544 36.5964 9.86836C37.4358 9.38228 38.3869 9.13924 39.4506 9.13924C40.5276 9.13924 41.4792 9.38228 42.3048 9.86836C43.1443 10.3544 43.8016 11.016 44.2776 11.8532C44.767 12.6903 45.0122 13.6422 45.0122 14.7089C45.0122 15.7755 44.767 16.7274 44.2776 17.5646C43.8016 18.4017 43.1443 19.0633 42.3048 19.5494C41.4792 20.0354 40.5276 20.2785 39.4506 20.2785C38.3869 20.2785 37.4358 20.0354 36.5964 19.5494C35.7569 19.0633 35.092 18.4017 34.6026 17.5646C34.1267 16.7274 33.8888 15.7755 33.8888 14.7089ZM32 14.7089C32 15.735 32.1819 16.6937 32.5457 17.5848C32.9234 18.4759 33.4481 19.2523 34.1197 19.9139C34.7915 20.562 35.5818 21.0751 36.4914 21.4532C37.4005 21.8177 38.3869 22 39.4506 22C40.5276 22 41.514 21.8177 42.4098 21.4532C43.3189 21.0751 44.1097 20.562 44.7813 19.9139C45.4529 19.2523 45.9704 18.4759 46.3343 17.5848C46.7121 16.6937 46.901 15.735 46.901 14.7089C46.901 13.6692 46.7121 12.7106 46.3343 11.8329C45.9704 10.9418 45.4529 10.1722 44.7813 9.52405C44.1097 8.86246 43.3189 8.34937 42.4098 7.98481C41.514 7.60677 40.5276 7.41772 39.4506 7.41772C38.3869 7.41772 37.4005 7.60677 36.4914 7.98481C35.5818 8.34937 34.7915 8.86246 34.1197 9.52405C33.4481 10.1722 32.9234 10.9418 32.5457 11.8329C32.1819 12.7106 32 13.6692 32 14.7089ZM39.1148 15.7215L45.4109 21.7975H47.7195L41.4234 15.7215H39.1148ZM50.994 18.1519V12.481H49.315V18.3544C49.315 19.4616 49.616 20.346 50.2175 21.0076C50.8194 21.6692 51.6236 22 52.631 22C53.2749 22 53.8344 21.865 54.3099 21.5949C54.786 21.3114 55.1847 20.8928 55.5062 20.3392V21.7975H57.1852V12.481H55.5062V18.1519C55.5062 18.611 55.4013 19.016 55.1914 19.3671C54.9958 19.7182 54.7087 19.9949 54.3309 20.1975C53.9675 20.3865 53.5406 20.481 53.0507 20.481C52.3791 20.481 51.8688 20.2785 51.5187 19.8734C51.169 19.4684 50.994 18.8945 50.994 18.1519ZM60.3414 8.63291C60.3414 8.92994 60.4535 9.19323 60.6772 9.42279C60.9152 9.6388 61.188 9.74683 61.4957 9.74683C61.8177 9.74683 62.0905 9.6388 62.3142 9.42279C62.5384 9.19323 62.65 8.92994 62.65 8.63291C62.65 8.32235 62.5384 8.05905 62.3142 7.84304C62.0905 7.62702 61.8177 7.51899 61.4957 7.51899C61.188 7.51899 60.9152 7.62702 60.6772 7.84304C60.4535 8.05905 60.3414 8.32235 60.3414 8.63291ZM60.6562 12.481V21.7975H62.3352V12.481H60.6562ZM65.7934 6V21.7975H67.4724V6H65.7934ZM70.6302 6V21.7975H72.3091V6H70.6302ZM76.1175 17.5038L74.6904 18.4354C75.0124 19.0565 75.4249 19.6439 75.9286 20.1975C76.4461 20.7375 77.0409 21.1764 77.7125 21.5139C78.3979 21.838 79.1396 22 79.9371 22C80.5248 22 81.0843 21.9055 81.6161 21.7165C82.1618 21.5274 82.6445 21.2574 83.0642 20.9063C83.4978 20.5553 83.8336 20.1299 84.0716 19.6304C84.3234 19.1308 84.4493 18.5704 84.4493 17.9494C84.4493 17.3013 84.3306 16.7477 84.0926 16.2886C83.8545 15.816 83.5469 15.4177 83.1691 15.0937C82.8052 14.7561 82.4064 14.4793 81.9729 14.2633C81.5393 14.0473 81.1262 13.8717 80.7346 13.7367C79.8813 13.4532 79.2026 13.1696 78.6989 12.8861C78.209 12.589 77.8594 12.2785 77.6496 11.9544C77.4397 11.6169 77.3348 11.2523 77.3348 10.8608C77.3348 10.4017 77.5165 9.98987 77.8804 9.62532C78.2444 9.24727 78.8248 9.05823 79.6223 9.05823C80.1962 9.05823 80.6789 9.16626 81.0704 9.38228C81.4764 9.5983 81.8188 9.87512 82.0988 10.2127C82.3788 10.5502 82.6097 10.8945 82.7914 11.2456L84.3234 10.3949C84.0854 9.89537 83.7568 9.42279 83.337 8.97722C82.9173 8.51816 82.4064 8.14684 81.805 7.86329C81.2173 7.56626 80.5248 7.41772 79.7273 7.41772C78.9016 7.41772 78.1671 7.57975 77.5236 7.9038C76.8802 8.21436 76.3765 8.6464 76.0126 9.2C75.6486 9.7536 75.4669 10.3815 75.4669 11.0835C75.4669 11.7316 75.5928 12.2785 75.8447 12.7241C76.1103 13.1696 76.4461 13.5477 76.852 13.8582C77.258 14.1553 77.6844 14.4051 78.1323 14.6076C78.5802 14.7966 78.9856 14.9519 79.3495 15.0734C79.909 15.2625 80.4337 15.4785 80.9235 15.7215C81.4272 15.9511 81.8331 16.2549 82.1408 16.6329C82.4484 17.011 82.6025 17.5173 82.6025 18.1519C82.6025 18.8 82.3645 19.3334 81.8889 19.7519C81.4134 20.1704 80.7838 20.3797 80.0001 20.3797C79.4125 20.3797 78.8878 20.2582 78.4261 20.0152C77.9644 19.7722 77.5446 19.4346 77.1669 19.0025C76.8029 18.5704 76.4533 18.0709 76.1175 17.5038ZM88.6437 6H86.9647V21.7975H88.6437V6ZM93.1559 16.1266V21.7975H94.8349V15.9241C94.8349 15.1139 94.6951 14.4388 94.4151 13.8987C94.1495 13.3587 93.7645 12.9536 93.2608 12.6835C92.771 12.4135 92.1905 12.2785 91.5189 12.2785C90.8473 12.2785 90.2525 12.4473 89.735 12.7848C89.2313 13.1223 88.8326 13.5815 88.5387 14.162C88.2449 14.7291 88.098 15.384 88.098 16.1266H88.6437C88.6437 15.681 88.7415 15.2827 88.9375 14.9316C89.1474 14.5806 89.434 14.3038 89.798 14.1013C90.1757 13.8987 90.6093 13.7975 91.0992 13.7975C91.7846 13.7975 92.2954 13.9932 92.6312 14.3848C92.9808 14.7764 93.1559 15.357 93.1559 16.1266ZM97.9911 8.63291C97.9911 8.92994 98.1032 9.19323 98.3269 9.42279C98.5649 9.6388 98.8378 9.74683 99.1454 9.74683C99.4674 9.74683 99.7402 9.6388 99.9639 9.42279C100.188 9.19323 100.3 8.92994 100.3 8.63291C100.3 8.32235 100.188 8.05905 99.9639 7.84304C99.7402 7.62702 99.4674 7.51899 99.1454 7.51899C98.8378 7.51899 98.5649 7.62702 98.3269 7.84304C98.1032 8.05905 97.9911 8.32235 97.9911 8.63291ZM98.3059 12.481V21.7975H99.9849V12.481H98.3059ZM107.178 22C108.214 22 109.109 21.8042 109.865 21.4127C110.635 21.0076 111.271 20.4135 111.774 19.6304L110.41 18.8C110.061 19.3671 109.634 19.7924 109.13 20.0759C108.626 20.346 108.046 20.481 107.388 20.481C106.731 20.481 106.171 20.346 105.709 20.0759C105.248 19.8059 104.898 19.4144 104.66 18.9013C104.422 18.3882 104.303 17.7671 104.303 17.038C104.317 16.3223 104.443 15.7215 104.681 15.2354C104.933 14.7359 105.283 14.3578 105.73 14.1013C106.192 13.8312 106.745 13.6962 107.388 13.6962C107.934 13.6962 108.41 13.811 108.815 14.0405C109.221 14.2701 109.536 14.5873 109.76 14.9924C109.998 15.3975 110.116 15.8768 110.116 16.4304C110.116 16.5249 110.096 16.6464 110.054 16.7949C110.012 16.9299 109.97 17.0312 109.928 17.0987L110.599 16.1671H103.673V17.5443H111.921C111.921 17.5173 111.921 17.4565 111.921 17.362C111.936 17.254 111.942 17.1527 111.942 17.0582C111.942 16.0726 111.761 15.222 111.397 14.5063C111.033 13.7907 110.509 13.2439 109.823 12.8658C109.151 12.4742 108.34 12.2785 107.388 12.2785C106.437 12.2785 105.598 12.481 104.87 12.8861C104.156 13.2911 103.597 13.8582 103.191 14.5873C102.799 15.3165 102.603 16.1671 102.603 17.1392C102.603 18.0979 102.792 18.9418 103.17 19.6709C103.562 20.4 104.1 20.9739 104.786 21.3924C105.486 21.7975 106.283 22 107.178 22ZM114.244 6V21.7975H115.923V6H114.244ZM126.321 6V21.7975H128V6H126.321ZM118.241 17.1392C118.241 18.1384 118.458 19.0025 118.892 19.7316C119.325 20.4608 119.906 21.0211 120.634 21.4127C121.361 21.8042 122.158 22 123.026 22C123.837 22 124.544 21.8042 125.146 21.4127C125.747 21.0211 126.216 20.4608 126.552 19.7316C126.902 19.0025 127.077 18.1384 127.077 17.1392C127.077 16.1266 126.902 15.2625 126.552 14.5468C126.216 13.8177 125.747 13.2574 125.146 12.8658C124.544 12.4742 123.837 12.2785 123.026 12.2785C122.158 12.2785 121.361 12.4742 120.634 12.8658C119.906 13.2574 119.325 13.8177 118.892 14.5468C118.458 15.2625 118.241 16.1266 118.241 17.1392ZM119.941 17.1392C119.941 16.4236 120.088 15.816 120.382 15.3165C120.689 14.8169 121.095 14.4388 121.599 14.1823C122.103 13.9258 122.648 13.7975 123.236 13.7975C123.726 13.7975 124.209 13.9258 124.684 14.1823C125.16 14.4388 125.552 14.8169 125.859 15.3165C126.167 15.816 126.321 16.4236 126.321 17.1392C126.321 17.8549 126.167 18.4625 125.859 18.962C125.552 19.4616 125.16 19.8397 124.684 20.0962C124.209 20.3527 123.726 20.481 123.236 20.481C122.648 20.481 122.103 20.3527 121.599 20.0962C121.095 19.8397 120.689 19.4616 120.382 18.962C120.088 18.4625 119.941 17.8549 119.941 17.1392Z" fill="white"/>
</svg>
