<svg width="37" height="41" viewBox="0 0 37 41" fill="none" xmlns="http://www.w3.org/2000/svg">
<g filter="url(#filter0_dd_1_2793)">
<path d="M23.1175 13.3125V9H10.9974C9.89616 9 9 9.90697 9 11.0215V29.9785C9 31.093 9.89616 32 10.9974 32H26.0026C27.1038 32 28 31.093 28 29.9785V13.9863H23.7833C23.4158 13.9863 23.1175 13.6845 23.1175 13.3125Z" fill="#5554D9"/>
</g>
<path d="M15.1149 16.0164H25.4391C25.6295 16.4315 26.0496 16.719 26.5352 16.719H30.5V32.8924C30.5 33.7766 29.7766 34.5 28.8851 34.5H15.1149C14.2234 34.5 13.5 33.7766 13.5 32.8924V15.5705C13.5546 15.5924 13.6137 15.6176 13.6818 15.6465C13.7 15.6542 13.7188 15.6622 13.7383 15.6705C13.8523 15.7187 13.9832 15.7733 14.1236 15.8236C14.4031 15.924 14.7424 16.0164 15.1149 16.0164ZM13.2824 15.4997C13.2823 15.4997 13.2831 15.4997 13.2847 15.4999L13.2824 15.4997Z" stroke="#5554D9"/>
<path d="M24.4746 9.40015V12.6719H27.8579L24.4746 9.40015Z" fill="#5554D9"/>
<path d="M20.6662 16.1431L18.6251 19.2043H14.5459L16.5855 16.1431H20.6662Z" fill="#191D23"/>
<path d="M18.6245 19.2043H22.7053L20.6657 16.1431H16.585L18.6245 19.2043Z" fill="#191D23"/>
<path d="M16.5855 22.2642L18.6251 19.2043L16.5855 16.1431L14.5459 19.2043L16.5855 22.2642Z" fill="#191D23"/>
<path d="M16.6055 26.8557L18.6466 23.7945H22.7273L20.6862 26.8557H16.6055Z" fill="#191D23"/>
<path d="M18.6471 23.7945H14.5664L16.606 26.8557H20.6867L18.6471 23.7945Z" fill="#191D23"/>
<path d="M20.6861 20.7358L18.6465 23.7958L20.6861 26.857L22.7272 23.7958L20.6861 20.7358Z" fill="#191D23"/>
<defs>
<filter id="filter0_dd_1_2793" x="0" y="0" width="37" height="41" filterUnits="userSpaceOnUse" color-interpolation-filters="sRGB">
<feFlood flood-opacity="0" result="BackgroundImageFix"/>
<feColorMatrix in="SourceAlpha" type="matrix" values="0 0 0 0 0 0 0 0 0 0 0 0 0 0 0 0 0 0 127 0" result="hardAlpha"/>
<feOffset dx="1" dy="1"/>
<feGaussianBlur stdDeviation="4"/>
<feComposite in2="hardAlpha" operator="out"/>
<feColorMatrix type="matrix" values="0 0 0 0 0.333333 0 0 0 0 0.329412 0 0 0 0 0.85098 0 0 0 0.16 0"/>
<feBlend mode="normal" in2="BackgroundImageFix" result="effect1_dropShadow_1_2793"/>
<feColorMatrix in="SourceAlpha" type="matrix" values="0 0 0 0 0 0 0 0 0 0 0 0 0 0 0 0 0 0 127 0" result="hardAlpha"/>
<feOffset dx="-1" dy="-1"/>
<feGaussianBlur stdDeviation="4"/>
<feComposite in2="hardAlpha" operator="out"/>
<feColorMatrix type="matrix" values="0 0 0 0 0.333333 0 0 0 0 0.329412 0 0 0 0 0.85098 0 0 0 0.16 0"/>
<feBlend mode="normal" in2="effect1_dropShadow_1_2793" result="effect2_dropShadow_1_2793"/>
<feBlend mode="normal" in="SourceGraphic" in2="effect2_dropShadow_1_2793" result="shape"/>
</filter>
</defs>
</svg>
